Coordinates
version=1
nRows=25
nColumns=28
inDegrees=yes

Units are S.I. units (second, meters, Newtons, ...)
Angles are in degrees.

endheader
time	pelvis_tilt	pelvis_list	pelvis_rotation	pelvis_tx	pelvis_ty	pelvis_tz	hip_flexion_r	hip_adduction_r	hip_rotation_r	knee_angle_r	ankle_angle_r	subtalar_angle_r	mtp_angle_r	hip_flexion_l	hip_adduction_l	hip_rotation_l	knee_angle_l	socket_flexion	socket_adduction	socket_rotation	socket_tx	socket_ty	socket_tz	foot_flex	lumbar_extension	lumbar_bending	lumbar_rotation
      0.54166667	      2.63883491	     -4.45822839	     10.54035250	      0.02007756	      0.96926487	      0.25023643	     21.08483413	      3.32771287	     -6.53905146	     -8.97935762	      6.06223110	    -18.70295817	     -5.83316135	    -26.49469745	     -7.20192148	     11.16943736	     -0.00315444	      5.02934049	      0.00000000	      0.00000000	      0.00000000	     -0.00091180	      0.00000000	      9.83895533	     -9.09865900	      4.41911015	    -17.19015305
      0.54583333	      2.70417465	     -4.54950522	     10.61649310	      0.02639500	      0.96796179	      0.25026116	     21.41451527	      3.46057495	     -6.52159788	    -10.04212609	      5.64212240	    -18.76743931	     -5.84696648	    -26.86038340	     -7.37476728	     11.15596245	     -0.12834797	      5.07438832	      0.00000000	      0.00000000	      0.00000000	     -0.00081330	      0.00000000	      9.89623721	     -9.16506556	      4.63822172	    -17.21975343
      0.55000000	      2.73574879	     -4.66552833	     10.57605896	      0.03276888	      0.96654787	      0.25045060	     21.89215658	      3.62310218	     -6.59688973	    -11.31211683	      5.12693059	    -18.88554334	     -5.82543185	    -27.21198609	     -7.50832980	     10.99723866	     -0.23653916	      5.15056494	      0.00000000	      0.00000000	      0.00000000	     -0.00080786	      0.00000000	      9.93728100	     -9.22913905	      4.86686000	    -17.24723789
      0.55416667	      2.38815710	     -4.71669106	     10.32664204	      0.03920949	      0.96461103	      0.25104513	     22.80241529	      3.74783730	     -6.27456517	    -12.63727686	      4.09901757	    -19.68170602	     -3.63712907	    -27.14950694	     -7.42981601	     10.75059166	     -0.42683466	      5.23936988	      0.00000000	      0.00000000	      0.00000000	     -0.00081203	      0.00000000	      9.96798342	     -8.78762212	      4.87019421	    -16.93920283
      0.55833333	      2.45388905	     -4.82554991	     10.33827243	      0.04560944	      0.96335498	      0.25122403	     23.12961809	      3.92761429	     -6.19397418	    -13.74897752	      3.66568076	    -19.66396901	     -3.65179217	    -27.47276750	     -7.58281294	     10.74086156	     -0.60922575	      5.33590869	      0.00000000	      0.00000000	      0.00000000	     -0.00077777	      0.00000000	      9.97641571	     -8.84683476	      5.10286207	    -16.98554737
      0.56250000	      2.41355854	     -4.92882202	     10.15322585	      0.05210058	      0.96187285	      0.25171663	     23.70417907	      4.11760783	     -6.17315075	    -15.10973697	      3.10963737	    -19.73923652	     -3.56539574	    -27.71077973	     -7.61102688	     10.41119095	     -0.78363440	      5.49265774	      0.00000000	      0.00000000	      0.00000000	     -0.00083046	      0.00000000	      9.95205061	     -8.80183324	      5.23513422	    -16.93733007
      0.56666667	      2.43555291	     -5.03573343	     10.13617689	      0.05853233	      0.96064991	      0.25198541	     24.04225880	      4.31972032	     -5.95371039	    -16.18584457	      2.70661199	    -19.71912962	     -3.52741861	    -27.93706013	     -7.73473330	     10.43713880	     -1.01481688	      5.64941032	      0.00000000	      0.00000000	      0.00000000	     -0.00085645	      0.00000000	      9.91213074	     -8.80921108	      5.45658261	    -16.93479470
      0.57083333	      1.86397503	     -5.01229174	      9.58361491	      0.06495738	      0.95844593	      0.25320306	     25.27919791	      4.48911832	     -5.25666798	    -17.75252222	      1.97793887	    -20.31139334	     -2.75705208	    -27.55129488	     -7.39302107	      9.93077582	     -1.41084045	      5.79029810	      0.00000000	      0.00000000	      0.00000000	     -0.00105618	      0.00000000	      9.83984570	     -8.21465507	      5.29213676	    -16.27030700
      0.57500000	      1.89834881	     -5.12943274	      9.48805318	      0.07146565	      0.95729110	      0.25363087	     25.63175511	      4.71819448	     -5.12288169	    -18.89381890	      1.46994935	    -20.37206914	     -2.64048748	    -27.72270688	     -7.47052946	      9.77720911	     -1.79122103	      5.93980972	      0.00000000	      0.00000000	      0.00000000	     -0.00117860	      0.00000000	      9.73348404	     -8.24899277	      5.51310783	    -16.30401092
      0.57916667	      1.55858255	     -5.14989118	      9.14006455	      0.07785257	      0.95564571	      0.25456688	     26.43824552	      4.94466465	     -4.50141680	    -20.14092334	      0.78286794	    -20.95535431	     -1.93405501	    -27.42710278	     -7.28301846	      9.50952594	     -2.40747549	      6.01757947	      0.00000000	      0.00000000	      0.00000000	     -0.00137357	      0.00000000	      9.59719114	     -7.89371741	      5.48352163	    -15.90950667
      0.58333333	      1.64346644	     -5.29233604	      9.12677580	      0.08439745	      0.95476094	      0.25491836	     26.62682416	      5.20961176	     -4.32333699	    -21.11543191	      0.45943618	    -20.90413056	     -1.91562682	    -27.59313063	     -7.42864374	      9.55954223	     -2.76493244	      6.28441639	      0.00000000	      0.00000000	      0.00000000	     -0.00149138	      0.00000000	      9.44080651	     -7.95140502	      5.72253054	    -15.96156615
      0.58750000	      1.65225942	     -5.42290404	      8.92449531	      0.09101842	      0.95369788	      0.25551420	     27.00132638	      5.47778468	     -4.22623841	    -22.28813829	      0.05237465	    -20.94127022	     -1.85698704	    -27.65688895	     -7.44084092	      9.16689704	     -3.23509041	      6.54415685	      0.00000000	      0.00000000	      0.00000000	     -0.00171762	      0.00000000	      9.20075998	     -8.03980210	      5.96037550	    -15.97887040
      0.59166667	      1.68969146	     -5.55705795	      8.80484703	      0.09762490	      0.95282362	      0.25608610	     27.23066486	      5.78281385	     -3.95996291	    -23.27325673	     -0.21532060	    -20.94088218	     -1.80066835	    -27.71151879	     -7.51223282	      9.09331633	     -3.70337344	      6.84617128	      0.00000000	      0.00000000	      0.00000000	     -0.00191096	      0.00000000	      8.96887919	     -8.04403351	      6.14976410	    -15.95245371
      0.59583333	      1.09122878	     -5.52698544	      8.26622189	      0.10402057	      0.95107684	      0.25747402	     28.25667757	      6.07129304	     -3.04102820	    -24.48610712	     -0.87665047	    -21.89277169	     -1.07941222	    -26.85485667	     -7.13026886	      8.57966390	     -4.99135382	      6.69422801	      0.00000000	      0.00000000	      0.00000000	     -0.00228377	      0.00000000	      8.68262792	     -7.41366936	      5.98217873	    -15.29060208
      0.60000000	      1.18493785	     -5.67248679	      8.22336043	      0.11071328	      0.95050317	      0.25790266	     28.33030545	      6.35641181	     -2.88437494	    -25.34732796	     -1.04098516	    -21.85161454	     -1.05735891	    -26.88548068	     -7.23961186	      8.52827207	     -5.47040216	      7.12053880	      0.00000000	      0.00000000	      0.00000000	     -0.00247248	      0.00000000	      8.36774268	     -7.49532658	      6.20358052	    -15.32198500
      0.60416667	      1.02554345	     -5.74493581	      7.83666340	      0.11729048	      0.94951793	      0.25895083	     28.76711747	      6.70786248	     -2.38743163	    -26.38838705	     -1.16239806	    -22.04092369	     -0.86536660	    -26.49745597	     -7.07517811	      7.99659002	     -6.58531035	      7.13793598	      0.00000000	      0.00000000	      0.00000000	     -0.00275726	      0.00000000	      7.98177593	     -7.36242663	      6.28009640	    -14.93235489
      0.60833333	      1.09164073	     -5.91790473	      7.69956761	      0.12403508	      0.94898951	      0.25953806	     28.85041762	      7.04596322	     -2.25915690	    -27.24042058	     -1.23236998	    -22.06960527	     -0.82578052	    -26.39897183	     -7.15594096	      7.71467892	     -7.29746652	      7.48568070	      0.00000000	      0.00000000	      0.00000000	     -0.00304129	      0.00000000	      7.57691373	     -7.41855269	      6.51525930	    -14.95349502
      0.61250000	      1.15839289	     -6.07624061	      7.60577033	      0.13074294	      0.94858372	      0.26005280	     28.86886159	      7.36978120	     -2.08954039	    -27.99406136	     -1.27256344	    -22.06709161	     -0.79514760	    -26.25687270	     -7.23943636	      7.53649797	     -7.99542862	      7.91785443	      0.00000000	      0.00000000	      0.00000000	     -0.00337858	      0.00000000	      7.11235136	     -7.51512652	      6.75063064	    -14.95013520
      0.61666667	      1.23664425	     -6.24282498	      7.48481177	      0.13750312	      0.94827256	      0.26065235	     28.84686778	      7.71238954	     -1.93724250	    -28.72045246	     -1.24255233	    -22.08800589	     -0.75755904	    -26.06482873	     -7.32015649	      7.18570366	     -8.83280191	      8.28384711	      0.00000000	      0.00000000	      0.00000000	     -0.00369272	      0.00000000	      6.61803828	     -7.59085317	      6.96635826	    -14.92664555
      0.62083333	      0.92111197	     -6.31026992	      7.21053956	      0.14379308	      0.94747365	      0.26165788	     29.28177701	      8.04005062	     -1.40684267	    -29.50465642	     -1.14734330	    -22.40867368	     -0.74485904	    -24.95390802	     -7.17417442	      6.66216908	    -11.22090723	      7.66062043	      0.00000000	      0.00000000	      0.00000000	     -0.00399436	      0.00000000	      6.15342037	     -7.23993361	      6.98986678	    -14.40390294
      0.62500000	      1.00708480	     -6.52278187	      7.06620577	      0.15057769	      0.94731969	      0.26232225	     29.15682786	      8.45758992	     -1.23699737	    -30.07729956	     -0.98317932	    -22.43852471	     -0.71611882	    -24.64161074	     -7.30762727	      6.15816139	    -12.31443838	      7.93793333	      0.00000000	      0.00000000	      0.00000000	     -0.00432269	      0.00000000	      5.62024308	     -7.30494672	      7.25131381	    -14.44868273
      0.62916667	      1.04871942	     -6.71302520	      6.95340351	      0.15714452	      0.94722307	      0.26299116	     29.05009023	      8.84936998	     -1.03099522	    -30.59448827	     -0.82737661	    -22.51472878	     -0.73139357	    -24.07803686	     -7.42854439	      5.66833236	    -13.93582876	      7.87975686	      0.00000000	      0.00000000	      0.00000000	     -0.00457809	      0.00000000	      5.04407922	     -7.35712263	      7.49959431	    -14.30404074
      0.63333333	      1.12816141	     -6.92709613	      6.82756383	      0.16388527	      0.94717555	      0.26369707	     28.88687648	      9.25115097	     -0.93963005	    -31.10936597	     -0.63406867	    -22.59355781	     -0.72238523	    -23.64810147	     -7.60100292	      5.07540744	    -15.19601239	      8.10481501	      0.00000000	      0.00000000	      0.00000000	     -0.00492318	      0.00000000	      4.46782331	     -7.41447595	      7.73768500	    -14.28468911
      0.63750000	      1.14012695	     -7.15113819	      6.77066613	      0.17031650	      0.94722545	      0.26443109	     28.71074470	      9.68642418	     -0.70175143	    -31.43568679	     -0.46640221	    -22.74358992	     -0.79377498	    -22.84275434	     -7.82380500	      4.48777793	    -17.21512943	      7.86676797	      0.00000000	      0.00000000	      0.00000000	     -0.00508938	      0.00000000	      3.93656050	     -7.42451780	      7.98215146	    -14.09233932
      0.64166667	      0.97196753	     -7.32687314	      6.76148286	      0.17665536	      0.94704935	      0.26518799	     28.76374417	     10.00274718	     -0.61255991	    -31.83311647	     -0.41136128	    -23.12424061	     -1.08668823	    -21.72589472	     -8.03263881	      3.96947603	    -19.43916402	      7.54010903	      0.00000000	      0.00000000	      0.00000000	     -0.00529314	      0.00000000	      3.35807967	     -7.23168011	      8.12698073	    -14.03282484
